# xmcd
#
# Track frame offsets:
#	150
#	21788
#	41843
#	61333
#
# Disc length: 1050 seconds
#
# Revision: 3
# Processed by: cddbd v1.5.2PL0 Copyright (c) Steve Scherf et al.
# Submitted via: VUPlayer 2.49
#
DISCID=2e041804
DTITLE=Color Me Badd - I Adore Mi Amor
DYEAR=1991
DGENRE=Pop
TTITLE0=I Adore Mi Amor =international Mix=
TTITLE1=I Adore Mi Amor =Round the Way Mix=
TTITLE2=I Wanna Sex You Up =Xtended Mix=
TTITLE3=I Wanna Sex You Up =Love You Up Mix=
EXTD=
EXTT0=
EXTT1=
EXTT2=
EXTT3=
PLAYORDER=
